<mxfile host="app.diagrams.net" modified="2020-10-30T01:39:55.363Z" agent="5.0 (Macintosh; Intel Mac OS X 10_15_7) AppleWebKit/537.36 (KHTML, like Gecko) Chrome/86.0.4240.111 Safari/537.36" etag="8FGmazq97FS3qhkYz_xz" version="13.8.7" type="github">
  <diagram id="quxzZSkBkLd0f9idq0Wd" name="Page-1">
    <mxGraphModel dx="561" dy="636" grid="1" gridSize="10" guides="1" tooltips="1" connect="1" arrows="1" fold="1" page="1" pageScale="1" pageWidth="850" pageHeight="1100" math="0" shadow="0">
      <root>
        <mxCell id="0" />
        <mxCell id="1" parent="0" />
        <mxCell id="FxqJkgI3-CwN4FX7W2Ce-3" style="edgeStyle=orthogonalEdgeStyle;rounded=0;orthogonalLoop=1;jettySize=auto;html=1;exitX=0.5;exitY=1;exitDx=0;exitDy=0;entryX=0.5;entryY=0;entryDx=0;entryDy=0;" edge="1" parent="1" source="FxqJkgI3-CwN4FX7W2Ce-1" target="FxqJkgI3-CwN4FX7W2Ce-2">
          <mxGeometry relative="1" as="geometry" />
        </mxCell>
        <mxCell id="FxqJkgI3-CwN4FX7W2Ce-1" value="UI Open" style="ellipse;whiteSpace=wrap;html=1;" vertex="1" parent="1">
          <mxGeometry x="40" y="40" width="120" height="80" as="geometry" />
        </mxCell>
        <mxCell id="FxqJkgI3-CwN4FX7W2Ce-2" value="Easy Mode?" style="rhombus;whiteSpace=wrap;html=1;" vertex="1" parent="1">
          <mxGeometry x="50" y="140" width="100" height="80" as="geometry" />
        </mxCell>
        <mxCell id="FxqJkgI3-CwN4FX7W2Ce-13" style="edgeStyle=orthogonalEdgeStyle;rounded=0;orthogonalLoop=1;jettySize=auto;html=1;exitX=0.5;exitY=1;exitDx=0;exitDy=0;entryX=0.5;entryY=0;entryDx=0;entryDy=0;" edge="1" parent="1" source="FxqJkgI3-CwN4FX7W2Ce-5" target="FxqJkgI3-CwN4FX7W2Ce-12">
          <mxGeometry relative="1" as="geometry" />
        </mxCell>
        <mxCell id="FxqJkgI3-CwN4FX7W2Ce-5" value="add audio / &lt;br&gt;list audio files" style="rounded=1;whiteSpace=wrap;html=1;" vertex="1" parent="1">
          <mxGeometry x="40" y="260" width="120" height="60" as="geometry" />
        </mxCell>
        <mxCell id="FxqJkgI3-CwN4FX7W2Ce-6" value="target db&lt;br&gt;target true peak" style="rounded=1;whiteSpace=wrap;html=1;" vertex="1" parent="1">
          <mxGeometry x="210" y="150" width="120" height="60" as="geometry" />
        </mxCell>
        <mxCell id="FxqJkgI3-CwN4FX7W2Ce-9" style="edgeStyle=orthogonalEdgeStyle;rounded=0;orthogonalLoop=1;jettySize=auto;html=1;exitX=0.5;exitY=1;exitDx=0;exitDy=0;entryX=0.5;entryY=0;entryDx=0;entryDy=0;" edge="1" parent="1" source="FxqJkgI3-CwN4FX7W2Ce-7" target="FxqJkgI3-CwN4FX7W2Ce-5">
          <mxGeometry relative="1" as="geometry" />
        </mxCell>
        <mxCell id="FxqJkgI3-CwN4FX7W2Ce-7" value="true" style="text;html=1;strokeColor=none;fillColor=none;align=center;verticalAlign=middle;whiteSpace=wrap;rounded=0;" vertex="1" parent="1">
          <mxGeometry x="80" y="220" width="40" height="20" as="geometry" />
        </mxCell>
        <mxCell id="FxqJkgI3-CwN4FX7W2Ce-10" style="edgeStyle=orthogonalEdgeStyle;rounded=0;orthogonalLoop=1;jettySize=auto;html=1;exitX=1;exitY=0.5;exitDx=0;exitDy=0;entryX=0;entryY=0.5;entryDx=0;entryDy=0;" edge="1" parent="1" source="FxqJkgI3-CwN4FX7W2Ce-8" target="FxqJkgI3-CwN4FX7W2Ce-6">
          <mxGeometry relative="1" as="geometry" />
        </mxCell>
        <mxCell id="FxqJkgI3-CwN4FX7W2Ce-8" value="false" style="text;html=1;strokeColor=none;fillColor=none;align=center;verticalAlign=middle;whiteSpace=wrap;rounded=0;" vertex="1" parent="1">
          <mxGeometry x="150" y="170" width="40" height="20" as="geometry" />
        </mxCell>
        <mxCell id="FxqJkgI3-CwN4FX7W2Ce-11" value="valid audio &lt;br&gt;in list?" style="rhombus;whiteSpace=wrap;html=1;" vertex="1" parent="1">
          <mxGeometry x="50" y="420" width="100" height="80" as="geometry" />
        </mxCell>
        <mxCell id="FxqJkgI3-CwN4FX7W2Ce-14" style="edgeStyle=orthogonalEdgeStyle;rounded=0;orthogonalLoop=1;jettySize=auto;html=1;exitX=0.5;exitY=1;exitDx=0;exitDy=0;entryX=0.5;entryY=0;entryDx=0;entryDy=0;" edge="1" parent="1" source="FxqJkgI3-CwN4FX7W2Ce-12" target="FxqJkgI3-CwN4FX7W2Ce-11">
          <mxGeometry relative="1" as="geometry" />
        </mxCell>
        <mxCell id="FxqJkgI3-CwN4FX7W2Ce-12" value="start button" style="rounded=1;whiteSpace=wrap;html=1;" vertex="1" parent="1">
          <mxGeometry x="40" y="340" width="120" height="60" as="geometry" />
        </mxCell>
      </root>
    </mxGraphModel>
  </diagram>
</mxfile>
